<?xml version="1.0" standalone="no"?>
<!DOCTYPE svg PUBLIC "-//W3C//DTD SVG 20010904//EN"
 "http://www.w3.org/TR/2001/REC-SVG-20010904/DTD/svg10.dtd">
<svg version="1.0" xmlns="http://www.w3.org/2000/svg"
 width="600.000000pt" height="600.000000pt" viewBox="0 0 600.000000 600.000000"
 preserveAspectRatio="xMidYMid meet">
<metadata>
Created by potrace 1.14, written by Peter Selinger 2001-2017
</metadata>
<g transform="translate(0.000000,600.000000) scale(0.100000,-0.100000)"
fill="#000000" stroke="none">
<path d="M2768 5995 c-2 -2 -36 -5 -76 -7 -39 -2 -72 -7 -72 -11 0 -5 -3 -6
-7 -4 -7 4 -97 -8 -200 -27 -284 -53 -637 -185 -898 -336 -165 -95 -380 -245
-446 -309 -9 -9 -43 -39 -75 -67 -83 -73 -171 -161 -240 -241 -32 -37 -61 -70
-64 -73 -21 -19 -149 -192 -203 -275 -241 -370 -393 -771 -458 -1205 -5 -36
-12 -78 -15 -95 -3 -16 -7 -151 -9 -300 -4 -304 6 -414 56 -659 51 -247 124
-457 244 -701 68 -140 191 -355 214 -375 3 -3 22 -27 40 -55 122 -176 339
-408 532 -568 335 -278 744 -485 1169 -593 122 -30 117 -29 235 -48 191 -31
291 -39 490 -40 318 0 517 27 855 117 165 44 491 184 660 283 65 38 291 188
320 213 14 11 31 26 38 32 7 6 41 34 75 62 472 390 844 995 984 1602 2 11 5
25 7 30 3 10 16 73 22 110 34 186 45 321 46 535 1 406 -63 756 -204 1110 -250
628 -679 1131 -1272 1489 -82 49 -331 173 -396 196 -201 73 -284 99 -405 129
-77 19 -160 37 -185 41 -73 11 -103 16 -135 21 -16 3 -41 8 -55 10 -32 6 -566
14 -572 9z"/>
</g>
</svg>
